<?xml version="1.0" encoding="UTF-8" standalone="no"?>
<!-- Created with Inkscape (http://www.inkscape.org/) -->

<svg
   width="7.0000892mm"
   height="7.0000892mm"
   viewBox="0 0 7.0000892 7.0000892"
   version="1.1"
   id="svg4857"
   xmlns="http://www.w3.org/2000/svg"
   xmlns:svg="http://www.w3.org/2000/svg">
  <defs
     id="defs4854" />
  <g
     id="layer1"
     transform="translate(-3.226411,-38.443126)">
    <path
       id="path1945"
       style="fill:#ffffff;stroke:none;stroke-width:0.264583px;stroke-linecap:butt;stroke-linejoin:miter;stroke-opacity:1"
       d="M 5.5585701,38.443126 3.226411,39.572257 v 5.870958 l 2.3321591,-1.12913 2.333707,1.12913 2.3342229,-1.12913 v -5.870959 l -2.3342229,1.129131 z m 0.2495947,1.17719 1.6701823,0.807185 a 0.94988127,0.94988127 0 0 0 0.1638168,0.05736 v 3.782713 L 5.9724975,43.45884 A 0.94988127,0.94988127 0 0 0 5.8081648,43.40096 Z m -0.4997106,5.29e-4 v 3.780131 a 0.94988127,0.94988127 0 0 0 -0.16433,0.05788 L 4.1757068,43.92756 v -3.759976 z m 3.96875,0.337963 v 3.759978 L 8.1423904,44.26759 v -3.782714 a 0.94988127,0.94988127 0 0 0 0.1638141,-0.05736 z" />
  </g>
</svg>
