<?xml version="1.0" standalone="no"?>
<!DOCTYPE svg PUBLIC "-//W3C//DTD SVG 20010904//EN"
 "http://www.w3.org/TR/2001/REC-SVG-20010904/DTD/svg10.dtd">
<svg version="1.0" xmlns="http://www.w3.org/2000/svg"
 width="512.000000pt" height="512.000000pt" viewBox="0 0 512.000000 512.000000"
 preserveAspectRatio="xMidYMid meet">

<g transform="translate(0.000000,512.000000) scale(0.100000,-0.100000)"
fill="#000000" stroke="none">
<path d="M2225 4963 c-541 -33 -1020 -180 -1387 -425 -222 -148 -393 -324
-516 -534 -48 -81 -52 -107 -17 -130 37 -24 60 -10 103 65 262 455 848 790
1567 898 173 26 685 26 870 0 474 -67 911 -206 1175 -373 196 -124 381 -296
523 -486 287 -383 447 -819 464 -1263 16 -432 -109 -870 -365 -1278 -383 -610
-1046 -1028 -1827 -1149 -187 -29 -582 -32 -749 -5 -270 43 -464 102 -684 208
-243 116 -402 230 -620 443 -433 424 -652 918 -652 1471 0 389 82 769 228
1060 60 121 111 193 199 285 78 82 87 108 59 160 l-14 24 -92 -89 c-221 -215
-323 -418 -414 -825 -132 -590 -88 -1076 136 -1524 168 -336 462 -678 788
-917 228 -167 443 -268 710 -332 571 -139 1119 -119 1602 57 210 76 600 259
746 350 288 179 518 440 762 866 101 178 155 292 200 427 124 376 131 805 19
1253 -166 667 -629 1233 -1228 1500 -187 84 -452 161 -701 204 -260 45 -671
72 -885 59z"/>
<path d="M1812 3594 c-61 -43 -80 -143 -92 -484 -13 -360 -13 -913 -1 -1070
20 -251 39 -299 144 -367 47 -31 57 -34 105 -29 67 6 106 26 372 194 463 291
901 599 1108 779 75 65 162 157 162 172 0 5 -7 25 -15 45 -15 34 -30 43 -268
160 -439 216 -1090 492 -1395 592 -86 28 -91 29 -120 8z m555 -538 c91 -28
276 -101 312 -122 32 -19 27 -17 -149 44 -80 28 -198 65 -262 83 -147 39 -192
66 -66 39 49 -11 123 -30 165 -44z m-229 -67 c34 -11 62 -21 62 -22 0 -3 -194
4 -197 7 -1 1 -5 21 -9 44 l-7 42 44 -25 c24 -13 72 -34 107 -46z m-103 -268
c-11 -46 -25 -48 -25 -3 0 34 3 40 16 35 11 -4 14 -13 9 -32z m493 22 c-10 -2
-26 -2 -35 0 -10 3 -2 5 17 5 19 0 27 -2 18 -5z m90 -10 c-10 -2 -26 -2 -35 0
-10 3 -2 5 17 5 19 0 27 -2 18 -5z m-266 -124 c-15 -6 -30 -5 -40 1 -13 7 -8
9 23 9 35 0 37 -1 17 -10z m347 -93 c-24 -21 -628 -270 -636 -262 -3 2 -1 17
4 32 8 23 21 31 94 54 46 15 134 46 194 70 150 59 366 125 344 106z"/>
</g>
</svg>
