<?xml version="1.0" encoding="UTF-8" standalone="no"?>
<!-- Created with Inkscape (http://www.inkscape.org/) -->

<svg
   width="7.0000892mm"
   height="7.0000892mm"
   viewBox="0 0 7.0000892 7.0000892"
   version="1.1"
   id="svg4857"
   xmlns="http://www.w3.org/2000/svg"
   xmlns:svg="http://www.w3.org/2000/svg">
  <defs
     id="defs4854" />
  <g
     id="layer1"
     transform="translate(-4.3483519,-41.938064)">
    <path
       id="rect583"
       style="fill:#ffffff;stroke-width:0.264583"
       d="m 5.5493115,41.938064 c -0.6648,0 -1.2009596,0.53616 -1.2009596,1.20096 v 1.761133 h 1.0841699 v -1.761133 c 0,-0.08157 0.035219,-0.11679 0.1167897,-0.11679 h 1.7616487 v -1.08417 z m 2.838069,0 v 1.08417 h 1.7616485 c 0.08157,0 0.115239,0.0331 0.115239,0.11679 v 1.761133 h 1.084173 v -1.761133 c 0,-0.6648 -0.534612,-1.200962 -1.199412,-1.20096 z m -4.0390286,4.039029 v 1.761649 c 0,0.6648 0.5361596,1.199411 1.2009596,1.199411 H 7.3109602 V 47.853981 H 5.5493115 c -0.08369,0 -0.1167897,-0.03367 -0.1167897,-0.115239 v -1.761649 z m 5.9159161,0 v 1.761649 c 0,0.08369 -0.03154,0.115239 -0.115239,0.115239 H 8.3873805 v 1.084172 h 1.7616485 c 0.6648,0 1.199412,-0.534611 1.199412,-1.199411 v -1.761649 z" />
  </g>
</svg>
