<?xml version="1.0" encoding="UTF-8" standalone="no"?>
<!-- Created with Inkscape (http://www.inkscape.org/) -->

<svg
   width="7.0003104mm"
   height="6.9998789mm"
   viewBox="0 0 7.0003105 6.9998789"
   version="1.1"
   id="svg4857"
   xmlns="http://www.w3.org/2000/svg"
   xmlns:svg="http://www.w3.org/2000/svg">
  <defs
     id="defs4854" />
  <g
     id="layer1"
     transform="translate(-4.4080125,-41.267719)">
    <path
       id="path1409"
       style="fill:#ffffff;stroke-width:0.264583"
       d="m 11.408323,44.229819 v -1.08417 H 9.6466725 c -0.0816,0 -0.11524,-0.0331 -0.11524,-0.11679 v -1.76114 h -1.08417 v 1.76114 c 0,0.6648 0.53461,1.20096 1.19941,1.20096 z M 7.3706225,41.268025 h -1.08417 v 1.76165 c 0,0.0816 -0.0331,0.11524 -0.11679,0.11524 h -1.76114 v 1.08417 h 1.76114 c 0.6648,0 1.20096,-0.53461 1.20096,-1.19941 z m 0,6.999573 v -1.761649 c 0,-0.6648 -0.53616,-1.199412 -1.20096,-1.199412 h -1.76165 v 1.084173 h 1.76165 c 0.0837,0 0.11679,0.03367 0.11679,0.115239 v 1.761649 z m 2.16059,0 v -1.761649 c 0,-0.08369 0.0315,-0.115239 0.11524,-0.115239 H 11.408103 V 45.306537 H 9.6464525 c -0.6648,0 -1.19941,0.534612 -1.19941,1.199412 v 1.761649 z" />
  </g>
</svg>
