<svg width="212.92" height="264.76" version="1.1" viewBox="0 0 199.61 248.21" xmlns="http://www.w3.org/2000/svg"><g fill-rule="evenodd" stroke-width="0"><path d="m199.6 124.09-199.61 124.11v-248.2z" opacity=".6"/><path transform="matrix(.93751 0 0 .93751 -.0021961 0)" d="m18.291 31.221v202.28l162.67-101.14-162.67-101.13zm35.186 75.719c2.4375 0 4.6487 0.27084 6.6348 0.8125 2.0087 0.5191 3.7246 1.2852 5.1465 2.3008 1.4219 0.99306 2.5158 2.2244 3.2832 3.6914 0.78993 1.4444 1.1855 3.1033 1.1855 4.9766 0 1.7153-0.28342 3.26-0.84766 4.6367-0.54167 1.3542-1.2971 2.5516-2.2676 3.5898-0.94792 1.0156-2.0757 1.8726-3.3848 2.5723-1.2865 0.67708-2.6871 1.1955-4.1992 1.5566v0.20313c3.9948 0.49652 7.0204 1.7153 9.0742 3.6562 2.0538 1.9184 3.0801 4.5145 3.0801 7.7871 0 2.1667-0.39562 4.1747-1.1855 6.0254-0.76736 1.8281-1.9629 3.4193-3.5879 4.7734-1.6024 1.3542-3.6337 2.4162-6.0938 3.1836-2.4375 0.74479-5.3151 1.1172-8.6328 1.1172-2.6632 0-5.1684-0.22635-7.5156-0.67774-2.3472-0.42882-4.5371-1.0953-6.5684-1.998v-8.9023c1.0156 0.54167 2.0883 1.0156 3.2168 1.4219s2.2563 0.75542 3.3848 1.0488c1.1285 0.27084 2.235 0.47396 3.3184 0.60938 1.1059 0.13542 2.1447 0.20312 3.1152 0.20312 1.941 0 3.5534-0.1799 4.8398-0.54101s2.3147-0.86893 3.082-1.5234c0.76736-0.65451 1.309-1.4332 1.625-2.3359 0.33854-0.92534 0.50781-1.9303 0.50781-3.0137 0-1.0156-0.21571-1.9297-0.64453-2.7422-0.40625-0.83507-1.0833-1.5354-2.0312-2.0996-0.92535-0.5868-2.1441-1.0375-3.6562-1.3535-1.5122-0.31597-3.3741-0.47461-5.5859-0.47461h-3.5195v-7.3457h3.4531c2.0764 0 3.803-0.17991 5.1797-0.54102 1.3767-0.38368 2.4707-0.89149 3.2832-1.5234 0.83507-0.65451 1.4212-1.4119 1.7598-2.2695s0.50781-1.7717 0.50781-2.7422c0-1.7604-0.5523-3.1358-1.6582-4.1289-1.0833-0.99306-2.8099-1.4902-5.1797-1.4902-1.0833 0-2.099 0.1122-3.0469 0.33789-0.92535 0.20313-1.7949 0.47396-2.6074 0.8125-0.78993 0.31598-1.5221 0.67774-2.1992 1.084-0.65452 0.38368-1.2533 0.76671-1.7949 1.1504l-5.2812-6.9727c0.94792-0.69965 1.9742-1.3429 3.0801-1.9297 1.1285-0.58681 2.3472-1.0946 3.6562-1.5234 1.309-0.45139 2.7203-0.80252 4.2324-1.0508 1.5122-0.24827 3.1265-0.3711 4.8418-0.3711zm26.609 0.71094h15.539c8.0799 0 14.354 2.1328 18.822 6.3984 4.4688 4.2656 6.7031 10.224 6.7031 17.875 0 8.1476-2.3253 14.387-6.9746 18.721-4.6267 4.3333-11.317 6.5-20.074 6.5h-14.016v-49.494zm10.494 8.5977v32.23h4.502c10.111 0 15.168-5.4292 15.168-16.285 0-10.63-4.6951-15.945-14.084-15.945h-5.5859z" fill="#fff" stroke-width="0"/></g><text x="542.0213" y="-201.85149" fill="#000000" font-family="sans-serif" font-size="15px" letter-spacing="0px" stroke-width=".93751" word-spacing="0px" style="line-height:1.25" xml:space="preserve"><tspan x="542.0213" y="-201.85149" stroke-width=".93751"> </tspan></text></svg>
